<?xml version="1.0" encoding="utf-8"?>
<!-- Generator: Adobe Illustrator 16.0.0, SVG Export Plug-In . SVG Version: 6.00 Build 0)  -->
<!DOCTYPE svg PUBLIC "-//W3C//DTD SVG 1.1//EN" "http://www.w3.org/Graphics/SVG/1.1/DTD/svg11.dtd">
<svg version="1.1" id="Layer_1" xmlns="http://www.w3.org/2000/svg" xmlns:xlink="http://www.w3.org/1999/xlink" x="0px" y="0px"
	 viewBox="0 0 129 129" enable-background="new 0 0 129 124" xml:space="preserve">
<polygon opacity="0.57" stroke="#000000" enable-background="new    " points="65.1,6.5 84,44.8 126.3,50.9 95.7,80.7 102.9,122.8 
	65.1,103 27.3,122.8 34.5,80.7 3.9,50.9 46.2,44.8 "/>
<polygon fill="#A8A8A8" stroke="#5B5B5B" stroke-width="3" stroke-linecap="round" stroke-linejoin="round" points="62.7,1.5 
	81.6,39.8 123.9,45.9 93.3,75.8 100.5,117.9 62.7,98 24.9,117.9 32.1,75.8 1.5,45.9 43.8,39.8 "/>
<g>
	<path fill="#B7B7B7" d="M47.8,44.3c0,0-24.9,3.6-33.4,4.8c6.2,6,24.1,23.5,24.1,23.5s-4.2,24.801-5.7,33.2
		c7.6-4,29.8-15.7,29.8-15.7s22.2,11.7,29.8,15.7c-1.5-8.5-5.7-33.2-5.7-33.2s18-17.5,24.1-23.5c-8.5-1.2-33.399-4.8-33.399-4.8
		S66.5,21.8,62.7,14.1C58.9,21.8,47.8,44.3,47.8,44.3z"/>
</g>
</svg>
